<svg width="64" height="64" viewBox="0 0 64 64" fill="none" xmlns="http://www.w3.org/2000/svg">
<path d="M0.248438 47.04C19.1177 67.027 57.2325 57.7401 63.7688 47.04C68.6289 69.2477 -4.79333 70.0553 0.248438 47.04Z" fill="#88288E"/>
<path d="M7.72403 29.8795C12.3946 45.4249 27.1538 55.1156 27.9011 55.1156C21.7359 55.9231 10.1154 53.3389 2.49294 44.6174C4.36119 41.7236 8.02295 34.7248 7.72403 29.8795Z" fill="#88288E"/>
<path d="M30.143 53.7023C15.9443 43.2041 7.16355 26.8512 8.65815 14.1322C11.9587 13.9976 20.4281 11.1846 27.9011 1.00944C18.1862 21.1983 25.4724 41.589 30.143 53.7023Z" fill="#88288E"/>
<path d="M31.8244 51.0778C27.1538 42.3966 21.7359 18.17 31.8244 0C42.2866 17.1605 35.9345 42.5985 31.8244 51.0778Z" fill="#88288E"/>
<path d="M55.3643 14.1322C56.1116 29.8795 41.6638 50.1356 33.5058 53.7023C42.4734 32.1003 41.5393 12.5171 35.9345 1.00944C40.4183 7.0661 48.8254 14.7379 55.3643 14.1322Z" fill="#88288E"/>
<path d="M56.1116 29.8795C53.4213 40.8622 42.2866 51.0778 35.9345 55.1156C45.8362 55.9231 55.3643 51.0778 61.5295 44.6174C57.9425 42.1947 56.423 33.7827 56.1116 29.8795Z" fill="#88288E"/>
</svg>
